<svg width="36" height="20" viewBox="0 0 36 20" fill="none" xmlns="http://www.w3.org/2000/svg">
<path fill-rule="evenodd" clip-rule="evenodd" d="M32.2979 5.02421C31.8376 5.02421 31.4128 4.91194 31.0227 4.68876C30.6333 4.46491 30.3258 4.16189 30.1013 3.77882C29.8761 3.39665 29.7639 2.96073 29.7639 2.50417C29.7639 2.04761 29.8761 1.62756 30.1013 1.24471C30.3258 0.862544 30.6333 0.559531 31.0227 0.335673C31.4128 0.111815 31.8287 0 32.2979 0C32.7672 0 33.1945 0.111815 33.5798 0.335673C33.9642 0.559531 34.2692 0.862544 34.4937 1.24471C34.719 1.62756 34.832 2.03649 34.832 2.50417C34.832 2.97184 34.7188 3.39665 34.4937 3.77882C34.2694 4.16189 33.9642 4.46491 33.5798 4.68876C33.1945 4.91194 32.7583 5.02421 32.2979 5.02421ZM32.2979 1.32704C31.9779 1.32704 31.7023 1.43863 31.473 1.66249C31.2431 1.88567 31.1283 2.17621 31.1283 2.50439C31.1283 2.83258 31.2428 3.10815 31.473 3.33201C31.7023 3.55587 31.9687 3.66746 32.2979 3.66746C32.6271 3.66746 32.905 3.55587 33.1294 3.33201C33.3546 3.10815 33.4669 2.84234 33.4669 2.50439C33.4669 2.16645 33.3546 1.88567 33.1294 1.66249C32.905 1.43863 32.618 1.32704 32.2979 1.32704ZM12.7765 9.11874C12.7765 8.55218 12.8952 8.02146 13.1345 7.52702L13.1347 7.52679C13.3104 7.16594 13.5693 6.87246 13.9117 6.6461C13.953 6.61503 13.953 6.57897 13.9117 6.53792C13.6626 6.35262 13.4497 6.10562 13.2741 5.79649C13.0357 5.38415 12.9168 4.92079 12.9168 4.40571C12.9168 3.67426 13.1238 3.05667 13.5387 2.55157C13.8389 2.14967 14.2398 1.83804 14.743 1.61667C15.2453 1.39531 15.7817 1.28463 16.4134 1.28463C17.045 1.28463 17.6053 1.39781 18.0919 1.62416C18.5785 1.85142 18.973 2.16056 19.2732 2.5518C19.6872 3.08729 19.8951 3.70556 19.8951 4.40594C19.8951 4.94143 19.7598 5.42044 19.4908 5.84276C19.3142 6.11107 19.1023 6.33742 18.8532 6.52272C18.8119 6.56445 18.8119 6.59983 18.8532 6.63091C19.1956 6.84751 19.4646 7.15165 19.6617 7.54289C19.9001 8.01692 20.0189 8.51567 20.0189 9.13394C20.0189 9.75221 19.8893 10.2827 19.6304 10.7257C19.3608 11.2514 18.949 11.6662 18.3956 11.9697C17.8403 12.2738 17.1796 12.4256 16.4134 12.4256C15.6884 12.4256 15.035 12.2786 14.4551 11.9851C13.8752 11.6914 13.4397 11.2666 13.1493 10.7098C12.9011 10.2258 12.7765 9.68531 12.7765 9.11874ZM15.7064 3.33133C15.5045 3.4504 15.351 3.61756 15.2479 3.83416L15.2481 3.83393C15.1441 4.03965 15.093 4.25625 15.093 4.4826C15.093 4.78198 15.1598 5.04939 15.2942 5.2864C15.5326 5.65723 15.9005 5.84253 16.3978 5.84253C16.8952 5.84253 17.2739 5.657 17.5328 5.2864C17.6672 5.06005 17.734 4.78697 17.734 4.46718C17.734 4.24082 17.6829 4.02445 17.5789 3.81851C17.4748 3.61257 17.3199 3.45018 17.1128 3.33133C16.9057 3.21316 16.6616 3.15419 16.3828 3.15419C16.1337 3.15419 15.9085 3.21316 15.7064 3.33133ZM16.3976 7.32607C15.859 7.32607 15.4755 7.53768 15.2479 7.95999C15.0927 8.21764 15.0145 8.56216 15.0145 8.96384C15.0145 9.36551 15.1028 9.70028 15.2793 9.96836C15.517 10.3596 15.9163 10.5556 16.4136 10.5556C16.9109 10.5556 17.2789 10.3753 17.5173 10.0144C17.7135 9.73634 17.8125 9.3764 17.8125 8.93344C17.8125 8.55218 17.7397 8.23216 17.5946 7.97473C17.366 7.54267 16.9677 7.32607 16.3976 7.32607ZM7.4461 4.00381L7.50792 3.98816L9.04642 3.57084C9.06695 3.56108 9.08771 3.56585 9.10916 3.58649C9.12969 3.60781 9.14041 3.62822 9.14041 3.64886V12.1164C9.14041 12.1682 9.15775 12.2115 9.19402 12.2478C9.23029 12.2838 9.27409 12.302 9.32679 12.302H11.1447C11.1968 12.302 11.2403 12.2838 11.2768 12.2478C11.3131 12.2117 11.3314 12.1682 11.3314 12.1164V1.67065C11.3314 1.61894 11.3131 1.57562 11.2768 1.53933C11.2406 1.50327 11.1968 1.48513 11.1447 1.48513H9.26406C9.16003 1.48513 9.08269 1.50078 9.03136 1.53094L7.39888 2.2887C7.30557 2.32975 7.25949 2.40188 7.25949 2.50439L7.30557 3.83371C7.30557 3.94688 7.35166 4.00336 7.44587 4.00336L7.4461 4.00381ZM16.1941 15.4201C16.1941 15.1588 16.4802 14.9973 16.7063 15.1316H16.706L20.2687 17.2529C20.4882 17.3838 20.4882 17.6995 20.2687 17.8301L16.706 19.9515C16.4802 20.086 16.1939 19.9245 16.1939 19.6632V18.3956C7.10459 18.1284 0 15.8569 0 13.0815C0 11.2507 3.15843 9.62157 7.95688 8.64767V9.60502C4.30751 10.4279 1.95916 11.654 1.95916 12.8297C1.95916 14.7381 8.18797 16.5131 16.1941 16.7483V15.4201ZM29.9183 9.08461L29.9183 9.08427L29.9179 9.0845L29.9183 9.08461ZM29.9183 9.08461C29.901 9.42062 29.8672 9.75617 29.8168 10.0584C32.4524 10.8645 34.0401 11.8556 34.0401 12.8297C34.0401 14.6099 28.6 16.2894 21.3361 16.6927C21.5218 16.9449 21.6231 17.2302 21.6231 17.5494C21.6231 17.8349 21.5389 18.1037 21.3863 18.3389C29.7151 17.8517 35.9998 15.6852 35.9998 13.082C35.9998 11.4864 33.6516 10.0587 29.9183 9.08461ZM25.0234 12.4714C26.1633 12.4714 27.0674 12.1548 27.7356 11.5208C28.4038 10.8878 28.7378 10.0251 28.7378 8.93344V4.85343C28.7378 3.78245 28.4038 2.93283 27.7356 2.30367C27.0674 1.67542 26.1633 1.36129 25.0234 1.36129C23.8834 1.36129 22.9819 1.67542 22.3187 2.30367C21.6555 2.9326 21.3247 3.78222 21.3247 4.85343V8.93344C21.3247 10.0251 21.6555 10.8878 22.3187 11.5208C22.9819 12.1548 23.8834 12.4714 25.0234 12.4714ZM23.5164 4.79196C23.5164 4.31794 23.6532 3.93985 23.9279 3.65612C24.2017 3.37329 24.5671 3.23131 25.0234 3.23131C25.4796 3.23131 25.8597 3.37329 26.1346 3.65612C26.4093 3.93985 26.547 4.31794 26.547 4.79196V9.04095C26.547 9.51498 26.4093 9.89374 26.1346 10.1768C25.8599 10.4605 25.4894 10.6016 25.0234 10.6016C24.5573 10.6016 24.2019 10.4605 23.9279 10.1768C23.6532 9.89397 23.5164 9.51498 23.5164 9.04095V4.79196Z" fill="#313131"/>
</svg>
