<svg width="36" height="20" viewBox="0 0 36 20" fill="none" xmlns="http://www.w3.org/2000/svg">
<g clip-path="url(#clip0_131_1128)">
<path d="M29.9184 9.08427C29.901 9.4204 29.8673 9.75607 29.8168 10.0584C32.4524 10.8645 34.0402 11.8556 34.0402 12.8298C34.0402 14.61 28.6 16.2895 21.3362 16.6927C21.5219 16.9449 21.6232 17.2302 21.6232 17.5494C21.6232 17.8349 21.539 18.1037 21.3864 18.3389C29.7151 17.8517 35.9998 15.6852 35.9998 13.082C35.9998 11.4864 33.6515 10.0586 29.9179 9.0845L29.9184 9.08427Z" fill="#313131"/>
<path d="M16.7063 15.1316C16.4802 14.9973 16.1941 15.1588 16.1941 15.4201V16.7483C8.18798 16.5131 1.95916 14.7381 1.95916 12.8298C1.95916 11.654 4.30752 10.4279 7.95688 9.60502V8.64767C3.15844 9.62158 0 11.2507 0 13.0815C0 15.8569 7.1046 18.1284 16.1939 18.3956V19.6632C16.1939 19.9245 16.4802 20.086 16.7061 19.9515L20.2687 17.8302C20.4882 17.6995 20.4882 17.3838 20.2687 17.2529L16.7061 15.1316H16.7063Z" fill="#313131"/>
<path d="M7.44613 4.00381L7.50795 3.98816L9.04645 3.57083C9.06698 3.56108 9.08774 3.56584 9.10918 3.58648C9.12972 3.6078 9.14044 3.62821 9.14044 3.64885V12.1164C9.14044 12.1681 9.15778 12.2115 9.19405 12.2478C9.23032 12.2838 9.27412 12.302 9.32682 12.302H11.1448C11.1968 12.302 11.2404 12.2838 11.2769 12.2478C11.3131 12.2117 11.3314 12.1681 11.3314 12.1164V1.67065C11.3314 1.61894 11.3131 1.57562 11.2769 1.53933C11.2406 1.50327 11.1968 1.48512 11.1448 1.48512H9.26408C9.16006 1.48512 9.08272 1.50077 9.03139 1.53094L7.39891 2.2887C7.3056 2.32975 7.25952 2.40187 7.25952 2.50439L7.3056 3.8337C7.3056 3.94688 7.35169 4.00335 7.4459 4.00335L7.44613 4.00381Z" fill="#313131"/>
<path d="M13.1344 7.52703C12.8951 8.02146 12.7765 8.55219 12.7765 9.11875C12.7765 9.68531 12.901 10.2258 13.1493 10.7098C13.4397 11.2666 13.8752 11.6914 14.4551 11.9851C15.035 12.2786 15.6883 12.4256 16.4133 12.4256C17.1796 12.4256 17.8403 12.2739 18.3955 11.9697C18.949 11.6662 19.3607 11.2514 19.6304 10.7257C19.8893 10.2827 20.0189 9.75222 20.0189 9.13395C20.0189 8.51567 19.9 8.01693 19.6616 7.5429C19.4645 7.15166 19.1956 6.84751 18.8531 6.63091C18.8118 6.59984 18.8118 6.56446 18.8531 6.52273C19.1023 6.33743 19.3142 6.11107 19.4908 5.84276C19.7597 5.42045 19.895 4.94143 19.895 4.40594C19.895 3.70557 19.6872 3.08729 19.2731 2.5518C18.9729 2.16056 18.5785 1.85143 18.0919 1.62417C17.6053 1.39781 17.045 1.28464 16.4133 1.28464C15.7816 1.28464 15.2453 1.39532 14.743 1.61668C14.2397 1.83804 13.8389 2.14968 13.5387 2.55158C13.1237 3.05667 12.9168 3.67427 12.9168 4.40572C12.9168 4.92079 13.0356 5.38416 13.274 5.79649C13.4497 6.10563 13.6625 6.35262 13.9117 6.53792C13.9529 6.57898 13.9529 6.61504 13.9117 6.64611C13.5692 6.87246 13.3103 7.16595 13.1347 7.5268L13.1344 7.52703ZM15.2478 3.83417C15.3509 3.61757 15.5044 3.45041 15.7063 3.33134C15.9085 3.21317 16.1336 3.1542 16.3827 3.1542C16.6615 3.1542 16.9056 3.21317 17.1128 3.33134C17.3199 3.45018 17.4748 3.61258 17.5788 3.81852C17.6828 4.02446 17.7339 4.24083 17.7339 4.46718C17.7339 4.78698 17.6671 5.06005 17.5327 5.28641C17.2738 5.65701 16.8951 5.84254 16.3978 5.84254C15.9005 5.84254 15.5325 5.65724 15.2941 5.28641C15.1597 5.04939 15.0929 4.78199 15.0929 4.48261C15.0929 4.25625 15.144 4.03965 15.248 3.83394L15.2478 3.83417ZM15.2478 7.96C15.4755 7.53769 15.859 7.32608 16.3976 7.32608C16.9677 7.32608 17.366 7.54267 17.5946 7.97474C17.7396 8.23217 17.8124 8.55219 17.8124 8.93345C17.8124 9.3764 17.7134 9.73635 17.5172 10.0144C17.2788 10.3753 16.9109 10.5556 16.4135 10.5556C15.9162 10.5556 15.517 10.3596 15.2793 9.96837C15.1027 9.70028 15.0144 9.36552 15.0144 8.96384C15.0144 8.56217 15.0927 8.21765 15.2478 7.96Z" fill="#313131"/>
<path d="M25.0233 12.4714C26.1633 12.4714 27.0674 12.1548 27.7356 11.5209C28.4038 10.8878 28.7377 10.0251 28.7377 8.93345V4.85343C28.7377 3.78245 28.4038 2.93284 27.7356 2.30368C27.0674 1.67542 26.1633 1.3613 25.0233 1.3613C23.8834 1.3613 22.9818 1.67542 22.3187 2.30368C21.6555 2.93261 21.3247 3.78223 21.3247 4.85343V8.93345C21.3247 10.0251 21.6555 10.8878 22.3187 11.5209C22.9818 12.1548 23.8834 12.4714 25.0233 12.4714ZM23.5163 4.79197C23.5163 4.31794 23.6532 3.93986 23.9279 3.65612C24.2016 3.3733 24.5671 3.23131 25.0233 3.23131C25.4796 3.23131 25.8597 3.3733 26.1346 3.65612C26.4092 3.93986 26.547 4.31794 26.547 4.79197V9.04096C26.547 9.51498 26.4092 9.89375 26.1346 10.1768C25.8599 10.4605 25.4894 10.6016 25.0233 10.6016C24.5573 10.6016 24.2019 10.4605 23.9279 10.1768C23.6532 9.89398 23.5163 9.51498 23.5163 9.04096V4.79197Z" fill="#313131"/>
<path d="M31.0227 4.68876C31.4128 4.91194 31.8376 5.02421 32.298 5.02421C32.7583 5.02421 33.1945 4.91194 33.5798 4.68876C33.9642 4.46491 34.2694 4.16189 34.4937 3.77882C34.7189 3.39665 34.832 2.97184 34.832 2.50417C34.832 2.03649 34.7191 1.62756 34.4937 1.24471C34.2692 0.862544 33.9642 0.559531 33.5798 0.335673C33.1945 0.111815 32.7672 0 32.298 0C31.8287 0 31.4128 0.111815 31.0227 0.335673C30.6333 0.559531 30.3258 0.862544 30.1013 1.24471C29.8762 1.62756 29.7639 2.04761 29.7639 2.50417C29.7639 2.96073 29.8762 3.39665 30.1013 3.77882C30.3258 4.16189 30.6333 4.46491 31.0227 4.68876ZM31.4731 1.66249C31.7023 1.43863 31.9779 1.32704 32.298 1.32704C32.618 1.32704 32.905 1.43863 33.1295 1.66249C33.3547 1.88567 33.4669 2.16645 33.4669 2.50439C33.4669 2.84234 33.3547 3.10815 33.1295 3.33201C32.905 3.55587 32.6272 3.66746 32.298 3.66746C31.9688 3.66746 31.7023 3.55587 31.4731 3.33201C31.2429 3.10815 31.1284 2.83258 31.1284 2.50439C31.1284 2.17621 31.2431 1.88567 31.4731 1.66249Z" fill="#313131"/>
</g>
<defs>
<clipPath id="clip0_131_1128">
<rect width="36" height="20" fill="white"/>
</clipPath>
</defs>
</svg>
