<svg width="21.5" height="21.5" viewBox="0 0 20 20" fill="none" xmlns="http://www.w3.org/2000/svg"><path d="M7.48705 7.15397C7.60251 6.86745 7.76659 6.60161 7.97322 6.36867C8.29159 6.00977 8.69956 5.74185 9.15541 5.59229C9.61126 5.44274 10.0987 5.41691 10.5678 5.51746C11.0369 5.618 11.4709 5.84131 11.8254 6.16456C12.1799 6.48781 12.4422 6.89939 12.5855 7.35725C12.7288 7.8151 12.748 8.3028 12.641 8.77049C12.5341 9.23818 12.3049 9.66908 11.9768 10.0191C11.6488 10.3692 11.2336 10.6259 10.7738 10.7629L10.4167 10.8694V11.2421V11.3333H9.58334V10.4583C9.58334 10.3478 9.62723 10.2418 9.70537 10.1637C9.78351 10.0856 9.8895 10.0417 10 10.0417H10C10.3551 10.0416 10.7029 9.94079 11.0029 9.75083C11.303 9.56087 11.5429 9.28962 11.6947 8.96865C11.8466 8.64767 11.9042 8.29016 11.8609 7.93772C11.8175 7.58528 11.675 7.2524 11.4498 6.97781C11.2247 6.70321 10.9262 6.4982 10.5891 6.38663C10.2519 6.27505 9.89008 6.2615 9.54556 6.34755C9.20105 6.4336 8.88805 6.6157 8.64299 6.87269C8.51516 7.00673 8.40856 7.15827 8.32595 7.32201L7.48705 7.15397ZM10 18.6667C5.2134 18.6667 1.33334 14.7866 1.33334 10C1.33334 5.21339 5.2134 1.33333 10 1.33333C14.7866 1.33333 18.6667 5.21339 18.6667 10C18.6667 14.7866 14.7866 18.6667 10 18.6667ZM10 17.8333C12.0775 17.8333 14.07 17.008 15.539 15.539C17.008 14.07 17.8333 12.0775 17.8333 10C17.8333 7.92247 17.008 5.93003 15.539 4.461C14.07 2.99196 12.0775 2.16667 10 2.16667C7.92247 2.16667 5.93003 2.99196 4.461 4.461C2.99196 5.93003 2.16667 7.92247 2.16667 10C2.16667 12.0775 2.99196 14.07 4.461 15.539C5.93003 17.008 7.92247 17.8333 10 17.8333ZM10.4167 13.25V14.0833H9.58334V13.25H10.4167Z" fill="#1C1C1C" stroke="black"></path></svg>