<svg xmlns="http://www.w3.org/2000/svg" width="11" height="11" fill="none">
  <path fill="#fff" fill-rule="evenodd" d="M5.032.02A5.5 5.5 0 0 1 9.97 2.293v-1.09a.516.516 0 0 1 1.031 0v2.922H8.078a.516.516 0 1 1 0-1.031h1.187a4.469 4.469 0 0 0-8.1 1.322.516.516 0 1 1-1-.25A5.5 5.5 0 0 1 5.031.021V.02ZM2.695 10.23a5.5 5.5 0 0 0 8.14-3.396.515.515 0 0 0-1-.25 4.469 4.469 0 0 1-8.1 1.322h1.187a.516.516 0 1 0 0-1.031H0v2.922a.516.516 0 0 0 1.031 0v-1.09a5.5 5.5 0 0 0 1.664 1.524Z" clip-rule="evenodd"/>
</svg>