<svg xmlns="http://www.w3.org/2000/svg" width="22" height="22" viewBox="0 0 22 22" fill="none">
<path d="M10.9941 15.1311C13.2788 15.1311 15.1309 13.279 15.1309 10.9944C15.1309 8.70974 13.2788 6.85767 10.9941 6.85767C8.70949 6.85767 6.85742 8.70974 6.85742 10.9944C6.85742 13.279 8.70949 15.1311 10.9941 15.1311Z" stroke="#1C1C1C" stroke-width="2" stroke-linecap="round" stroke-linejoin="round"/>
<path d="M2.04142 16.1745C1.58428 15.3871 1.23406 14.5424 1 13.6625L2.73535 11.4907C2.7157 11.1587 2.7157 10.8258 2.73535 10.4938L1.00103 8.32199C1.2347 7.44199 1.5842 6.59691 2.04038 5.80894L4.80268 5.49868C5.02326 5.25016 5.25844 5.01499 5.50696 4.79441L5.81721 2.03315C6.60405 1.57914 7.44774 1.23171 8.32613 1L10.4979 2.73535C10.8299 2.7157 11.1628 2.7157 11.4949 2.73535L13.6666 1.00103C14.5466 1.2347 15.3917 1.5842 16.1797 2.04038L16.4899 4.80268C16.7385 5.02326 16.9736 5.25844 17.1942 5.50696L19.9555 5.81721C20.4126 6.6046 20.7628 7.44937 20.9969 8.32923L19.2615 10.501C19.2812 10.833 19.2812 11.1659 19.2615 11.498L20.9959 13.6697C20.7638 14.5495 20.4161 15.3945 19.9617 16.1828L17.1994 16.493C16.9788 16.7416 16.7436 16.9767 16.4951 17.1973L16.1849 19.9586C15.3975 20.4157 14.5527 20.7659 13.6728 21L11.5011 19.2646C11.169 19.2843 10.8361 19.2843 10.5041 19.2646L8.33233 20.999C7.45258 20.7669 6.60752 20.4192 5.81928 19.9648L5.50902 17.2025C5.2605 16.9819 5.02533 16.7467 4.80475 16.4982L2.04142 16.1745Z" stroke="#1C1C1C" stroke-width="2" stroke-linecap="round" stroke-linejoin="round"/>
</svg>