<svg width="240" height="64"  xmlns="http://www.w3.org/2000/svg" xml:space="preserve" baseProfile="tiny" overflow="visible" version="1.2" viewBox="0 0 54.6 8">
	<path fill-rule="evenodd" d="M29.1 3.3s-1-.5-1.2-.7c0 0-.4-.4-.2-.8 0 0 .1-.3.5-.3 0 0 .5 0 .5.5v.6h2v-.9S30.9.2 28.4.1c0 0-1.9-.1-2.5.9 0 0-.2.2-.2 1v.6s0 .7.3 1.1c0 0 .2.3.7.6l1.6.8s.6.3.5.9c0 0 0 .6-.6.5 0 0-.5 0-.5-.6v-.6h-2.1v.9S25.5 8 28.2 8c0 0 2.6.1 2.7-1.8v-.8s.1-1.1-.9-1.7c0 0-.6-.3-.9-.4zM20 .3l-.7 4.1h-.2L18.5.3h-3.2l-.2 7.4H17V2.1h.2l1 5.6h2.1l1-5.6h.1l.1 5.6h1.9L23.2.3zM8.4.3 7.2 7.7h2L10 2h.2l.7 5.7H13L11.7.3zM52.1 3.6v1.1h.5v1.2c0 .6-.5.6-.5.6-.6 0-.6-.5-.6-.5V1.9c0-.4.5-.4.5-.4.5 0 .5.5.5.5v.6h2c.2-1.3-.1-1.6-.1-1.6-.5-1.1-2.3-1-2.3-1-2.8 0-2.5 2.2-2.5 2.2v3.9c.1 2 2.8 1.8 2.9 1.8 1.2-.1 1.6-.5 1.6-.5.3-.3.4-.6.4-.6.1-.2.1-.9.1-.9V3.6h-2.5zM45.6 4.8h-.1L43.6.3h-2.4v7.4h1.9L43 3.2h.1l2 4.5h2.3V.3h-1.9zM36.4 5.9s0 .6-.5.6c0 0-.6 0-.6-.6V.3h-2.1v5.6S33 8 36 8c0 0 2.6 0 2.6-2V.3h-2.1v5.6zM4.4 3.7s-.5-.3-.9-.5c0 0-1-.5-1.2-.7 0 0-.4-.4-.2-.8 0 0 .1-.3.5-.3 0 0 .5 0 .5.5v.6h2v-.9S5.2.1 2.8 0h-.5S.8.1.3.9c0 0-.2.2-.2 1v.6s0 .7.3 1.1c0 0 .2.3.7.6l1.6.8s.6.3.5.9c0 0 0 .6-.6.5 0 0-.5 0-.5-.6v-.5H0v.9S-.1 8 2.6 8c0 0 2.6.1 2.7-1.8v-.7c0-.1.1-1.2-.9-1.8z"/>
</svg>